<svg viewBox="0 0 24 24" fill="none" xmlns="http://www.w3.org/2000/svg">
  <path
    d="M4.32391 19.677C4.17816 19.5379 4.08209 19.3723 4.03571 19.1801C3.98934 18.988 3.98934 18.7959 4.03571 18.6037C4.08872 18.4116 4.18478 18.2493 4.32391 18.1168L10.4258 11.995L4.32391 5.88323C4.18478 5.75072 4.09203 5.58841 4.04565 5.39627C3.99927 5.20414 3.99927 5.01201 4.04565 4.81988C4.09203 4.62774 4.18478 4.46211 4.32391 4.32298C4.46967 4.17723 4.63861 4.08116 4.83074 4.03478C5.02288 3.98841 5.21501 3.98841 5.40714 4.03478C5.59927 4.08116 5.76491 4.17391 5.90404 4.31304L12.0158 10.4248L18.1177 4.31304C18.2568 4.16729 18.4225 4.07453 18.6146 4.03478C18.8067 3.98841 18.9955 3.98841 19.1811 4.03478C19.3732 4.08116 19.5454 4.17723 19.6978 4.32298C19.837 4.46211 19.9297 4.62774 19.9761 4.81988C20.0291 5.01201 20.0291 5.20414 19.9761 5.39627C19.9297 5.58178 19.837 5.74741 19.6978 5.89317L13.596 11.995L19.6978 18.1068C19.837 18.2526 19.9297 18.4215 19.9761 18.6137C20.0225 18.7992 20.0225 18.988 19.9761 19.1801C19.9297 19.3723 19.837 19.5379 19.6978 19.677C19.5521 19.8228 19.3831 19.9188 19.191 19.9652C18.9989 20.0116 18.8067 20.0116 18.6146 19.9652C18.4225 19.9188 18.2568 19.8261 18.1177 19.687L12.0158 13.5752L5.90404 19.687C5.76491 19.8261 5.59927 19.9188 5.40714 19.9652C5.22163 20.0116 5.0295 20.0116 4.83074 19.9652C4.63861 19.9188 4.46967 19.8228 4.32391 19.677Z"
    fill="currentColor"
  />
</svg>
